<?xml version="1.0" encoding="UTF-8"?>
<svg version="1.1" xmlns="http://www.w3.org/2000/svg" width="512" height="512">
<path d="M0 0 C0.86488037 -0.00067474 1.72976074 -0.00134949 2.62084961 -0.00204468 C16.71680233 0.0153718 30.41579876 0.72746311 44.3125 3.25 C45.21645508 3.4056543 46.12041016 3.56130859 47.05175781 3.72167969 C73.53629808 8.40201643 98.56778709 17.76921072 122.3125 30.25 C123.02809082 30.62366699 123.74368164 30.99733398 124.48095703 31.38232422 C144.68270531 42.06353206 162.90786866 56.43634907 179.3125 72.25 C179.86856934 72.78415527 180.42463867 73.31831055 180.99755859 73.86865234 C188.31679645 80.93586479 195.05174508 88.21177939 201.3125 96.25 C202.45912109 97.65378906 202.45912109 97.65378906 203.62890625 99.0859375 C229.71861646 131.6666671 245.23186351 170.60427079 253.3125 211.25 C253.49329102 212.136875 253.67408203 213.02375 253.86035156 213.9375 C259.21436937 241.52719017 258.68633386 273.71910737 253.3125 301.25 C253.15152832 302.14702637 252.99055664 303.04405273 252.82470703 303.96826172 C250.69244281 315.75204279 247.59982469 327.12127645 243.875 338.5 C243.51583496 339.60633789 243.15666992 340.71267578 242.78662109 341.85253906 C238.4677554 354.57230134 232.49577111 367.45003473 220.3125 374.25 C219.6525 374.25 218.9925 374.25 218.3125 374.25 C218.04179687 374.96671875 217.77109375 375.6834375 217.4921875 376.421875 C210.58916409 392.97084504 198.1652114 407.97678546 186.3125 421.25 C185.83844727 421.7857666 185.36439453 422.3215332 184.87597656 422.87353516 C148.05675876 464.32897377 97.81591273 491.58049305 43.3125 501.25 C41.96260986 501.49556641 41.96260986 501.49556641 40.58544922 501.74609375 C13.61591541 506.44235364 -15.77909159 506.12527299 -42.6875 501.25 C-43.60885742 501.08902832 -44.53021484 500.92805664 -45.47949219 500.76220703 C-110.69385881 489.02903115 -167.77191806 450.3216657 -205.5 396.26171875 C-214.39507379 383.15817119 -222.39388741 368.81399581 -228.41796875 354.16015625 C-229.94504571 350.65962599 -231.93171486 348.87760909 -234.6875 346.25 C-248.32553126 330.54783428 -252.12143152 309.30573422 -254.6875 289.25 C-254.78321289 288.51499268 -254.87892578 287.77998535 -254.97753906 287.02270508 C-257.63220476 262.93803645 -257.70612121 235.96991826 -252.6875 212.25 C-252.48350586 211.23953613 -252.27951172 210.22907227 -252.06933594 209.18798828 C-241.46767698 157.39109119 -216.94298064 113.4922602 -180.6875 75.25 C-179.62015625 74.11884766 -179.62015625 74.11884766 -178.53125 72.96484375 C-173.30302318 67.57591324 -167.55840774 62.9179769 -161.6875 58.25 C-160.61396889 57.37445076 -159.54107003 56.49812583 -158.46875 55.62109375 C-121.80973151 25.90087553 -76.53190187 6.84198314 -29.6875 1.25 C-28.91897705 1.1557373 -28.1504541 1.06147461 -27.35864258 0.96435547 C-18.26246239 -0.01076482 -9.13807365 0.00642269 0 0 Z M-61.6875 195.25 C-62.84378906 196.38888672 -62.84378906 196.38888672 -64.0234375 197.55078125 C-79.67293578 213.86792024 -87.24720724 236.20054673 -87.10913086 258.57104492 C-86.54264169 278.30842513 -79.57675427 295.65062383 -67.6875 311.25 C-67.14609375 311.97703125 -66.6046875 312.7040625 -66.046875 313.453125 C-52.75532278 329.9668717 -31.484203 340.54717939 -10.6875 343.25 C14.22214647 344.80348746 35.3022331 339.50106829 55.3125 324.25 C56.03953125 323.70859375 56.7665625 323.1671875 57.515625 322.609375 C71.59291618 311.27887234 80.60145687 294.4133481 85.3125 277.25 C85.65087891 276.01830078 85.65087891 276.01830078 85.99609375 274.76171875 C91.19767976 251.69537527 85.38550476 228.18755574 73.390625 208.265625 C69.57780587 202.73273709 65.0472108 197.99821924 60.3125 193.25 C59.25095703 192.15365234 59.25095703 192.15365234 58.16796875 191.03515625 C42.52901272 175.93444345 19.8871435 168.82442291 -1.48193359 168.94946289 C-24.46913889 169.55668236 -45.41005749 178.9997773 -61.6875 195.25 Z " fill="#5E4742" transform="translate(255.6875,3.75)"/>
<path d="M0 0 C6.02443823 3.48326573 10.59049314 8.90336192 12.75 15.5 C13.0015564 18.89904785 13.0015564 18.89904785 13.00537109 22.83789062 C13.01080177 23.91957016 13.01080177 23.91957016 13.01634216 25.02310181 C13.02321629 26.58411905 13.02574533 28.14516022 13.02439499 29.70619202 C13.02342482 32.18869028 13.03643317 34.67076128 13.05337524 37.15319824 C13.09947437 44.20984519 13.12420845 51.26644977 13.13085938 58.32324219 C13.1359163 62.6475112 13.16038194 66.97133766 13.19618607 71.29545593 C13.20589439 72.93142521 13.20836578 74.5674561 13.20301437 76.20344543 C13.1534581 92.11103606 15.86876657 105.91722376 27.07421875 118.0078125 C38.71825219 129.08518184 51.03408179 132.21433895 66.71484375 131.87890625 C78.90033267 131.24260615 89.73680078 124.99021817 98 116.25 C105.75636452 107.04413594 109.61503444 96.30772658 110.1875 84.375 C110.60298578 76.87181558 112.25031481 72.39437233 117.125 66.75 C123.54300675 61.24885136 128.3846286 59.06748613 136.76171875 59.15625 C142.96577568 59.86991929 148.53944784 62.74462905 152.6875 67.4375 C156.58733566 73.22816506 158.17085159 78.02057017 159.0625 84.8125 C160.3080719 92.76847326 162.23009971 98.79772395 168.671875 104.07421875 C175.74013269 108.85488141 183.3159635 110.48212943 191.75 109.5 C200.10313893 107.47778205 206.4898613 103.99674304 211.5625 97 C213.93232033 92.01090457 214.99853296 87.72234893 214.98950195 82.19433594 C214.99323318 80.96575867 214.99696442 79.7371814 215.00080872 78.47137451 C214.99460762 76.49780975 214.99460762 76.49780975 214.98828125 74.484375 C214.99430936 73.10442348 215.00192012 71.72447806 215.0110321 70.34454346 C215.04795146 64.51010621 215.06675072 58.67585971 215.05541992 52.84130859 C215.04952425 49.26142732 215.06804138 45.68232923 215.10130882 42.10260773 C215.11299185 40.09656643 215.09800991 38.09042583 215.08235168 36.08441162 C215.17721551 27.15612817 216.51947093 20.07533616 222.72529602 13.3637085 C228.17308699 8.19837354 233.54926288 5.39966772 241.125 5.0625 C248.96102893 5.30938858 255.47607165 8.35315069 261.18359375 13.703125 C266.37102903 19.65379889 267.95184451 25.70256234 268.625 33.4375 C269.48448246 42.56336958 272.49673628 48.75263108 279.41015625 54.84375 C290.98204442 63.630108 302.41875784 65.86627105 316.75 64.5 C320.92367067 63.5126337 324.81488031 62.19839462 328.75 60.5 C322.15685675 77.95613164 309.06548995 93.70854463 296.75 107.5 C296.27594727 108.0357666 295.80189453 108.5715332 295.31347656 109.12353516 C258.49425876 150.57897377 208.25341273 177.83049305 153.75 187.5 C152.85007324 187.66371094 151.95014648 187.82742188 151.02294922 187.99609375 C124.05341541 192.69235364 94.65840841 192.37527299 67.75 187.5 C66.82864258 187.33902832 65.90728516 187.17805664 64.95800781 187.01220703 C-0.25635881 175.27903115 -57.33441806 136.5716657 -95.0625 82.51171875 C-104.17125603 69.09416794 -113.38313075 54.01216653 -118.25 38.5 C-114.87325775 40.02070379 -112.21690803 42.02828135 -109.3125 44.3125 C-96.91072931 53.3917804 -79.61825109 58.27402639 -64.25 56.5 C-53.21598686 54.22640242 -45.03352432 50.01304732 -38.5625 40.67578125 C-34.6852857 34.2483754 -33.11963013 28.3316976 -32.3125 20.875 C-31.43242792 13.40567025 -29.90717175 8.74288276 -24.25 3.7265625 C-17.12019549 -1.85670353 -8.6319551 -3.83454757 0 0 Z " fill="#FED484" transform="translate(145.25,317.5)"/>
<path d="M0 0 C2.5 0.25 2.5 0.25 4.5 2.25 C4.41626002 9.57724843 1.45027846 15.1549442 -1.875 21.5625 C-2.37 22.55056641 -2.865 23.53863281 -3.375 24.55664062 C-7.62045723 32.89430998 -7.62045723 32.89430998 -10.5 35.25 C-13.0625 35.625 -13.0625 35.625 -15.5 35.25 C-17.5 32.25 -17.5 32.25 -17.29077148 29.42285156 C-16.47618953 26.15446407 -15.36277494 23.48892813 -13.84765625 20.484375 C-13.05391602 18.90269531 -13.05391602 18.90269531 -12.24414062 17.2890625 C-11.68919922 16.20367187 -11.13425781 15.11828125 -10.5625 14 C-10.01142578 12.89914063 -9.46035156 11.79828125 -8.89257812 10.6640625 C-3.68803374 0.36880337 -3.68803374 0.36880337 0 0 Z " fill="#7CC6F5" transform="translate(31.5,206.75)"/>
<path d="M0 0 C0.99 0.103125 1.98 0.20625 3 0.3125 C5 3.3125 5 3.3125 4.78857422 5.64794922 C3.91434884 8.60191077 2.7568527 11.18751338 1.3828125 13.9453125 C0.85816406 14.99847656 0.33351563 16.05164063 -0.20703125 17.13671875 C-0.75746094 18.22597656 -1.30789062 19.31523438 -1.875 20.4375 C-2.41769531 21.53449219 -2.96039063 22.63148437 -3.51953125 23.76171875 C-4.04675781 24.81230469 -4.57398437 25.86289063 -5.1171875 26.9453125 C-5.59784668 27.90324707 -6.07850586 28.86118164 -6.57373047 29.84814453 C-7.88139855 32.10757651 -8.94125346 33.71847874 -11 35.3125 C-15.42105263 34.89144737 -15.42105263 34.89144737 -17 33.3125 C-17.39052875 28.58667296 -16.51073149 25.55676645 -14.4453125 21.328125 C-13.91292969 20.22855469 -13.38054687 19.12898438 -12.83203125 17.99609375 C-12.26871094 16.86300781 -11.70539063 15.72992188 -11.125 14.5625 C-10.56941406 13.41394531 -10.01382813 12.26539062 -9.44140625 11.08203125 C-4.24030108 0.44169803 -4.24030108 0.44169803 0 0 Z " fill="#7CC6F5" transform="translate(125,82.6875)"/>
<path d="M0 0 C2.5 0.25 2.5 0.25 4.5 2.25 C4.97395714 6.89248594 4.0672816 9.86003019 1.98046875 13.98046875 C1.18866211 15.55538086 1.18866211 15.55538086 0.38085938 17.16210938 C-0.17794922 18.24298828 -0.73675781 19.32386719 -1.3125 20.4375 C-1.85970703 21.52998047 -2.40691406 22.62246094 -2.97070312 23.74804688 C-7.70815385 33.06790449 -7.70815385 33.06790449 -10.5 35.25 C-13.84192692 35.00546876 -15.10543557 34.64456443 -17.5 32.25 C-17.12848905 28.24227683 -15.5773546 24.96152527 -13.84765625 21.36328125 C-13.05391602 19.7090918 -13.05391602 19.7090918 -12.24414062 18.02148438 C-11.68919922 16.88001953 -11.13425781 15.73855469 -10.5625 14.5625 C-10.01142578 13.40943359 -9.46035156 12.25636719 -8.89257812 11.06835938 C-3.72994758 0.37299476 -3.72994758 0.37299476 0 0 Z " fill="#7CC6F5" transform="translate(288.5,83.75)"/>
<path d="M0 0 C5.14369336 1.49665994 9.15021757 4.35667662 13.56640625 7.33203125 C14.45134766 7.91404297 15.33628906 8.49605469 16.24804688 9.09570312 C20.48497569 11.90231089 24.61101 14.74172879 28.50390625 18.01953125 C28.17390625 19.99953125 27.84390625 21.97953125 27.50390625 24.01953125 C24.10737367 24.87897712 22.15916943 25.29653969 18.88256836 23.91137695 C18.0241333 23.34507568 17.16569824 22.77877441 16.28125 22.1953125 C15.33056641 21.57849609 14.37988281 20.96167969 13.40039062 20.32617188 C12.42392578 19.66810547 11.44746094 19.01003906 10.44140625 18.33203125 C9.46107422 17.69330078 8.48074219 17.05457031 7.47070312 16.39648438 C2.97749666 13.44676906 -1.33063247 10.42153437 -5.49609375 7.01953125 C-4.3931744 0.03437539 -4.3931744 0.03437539 0 0 Z " fill="#F9E1A1" transform="translate(299.49609375,132.98046875)"/>
<path d="M0 0 C2 2 2 2 2.625 4.3125 C2 7 2 7 0.56469727 8.16723633 C-5.04446289 11.54235338 -10.79132362 14.53316799 -16.6875 17.375 C-17.61111328 17.83777344 -18.53472656 18.30054688 -19.48632812 18.77734375 C-20.38158203 19.20917969 -21.27683594 19.64101562 -22.19921875 20.0859375 C-23.00190186 20.4782959 -23.80458496 20.8706543 -24.6315918 21.27490234 C-27.45858206 22.14039673 -29.18668748 21.79238566 -32 21 C-32.33 18.69 -32.66 16.38 -33 14 C-30.02347168 12.41167112 -27.04330229 10.83029131 -24.0625 9.25 C-23.23169922 8.8065625 -22.40089844 8.363125 -21.54492188 7.90625 C-4.91553949 -0.89373445 -4.91553949 -0.89373445 0 0 Z " fill="#9BB243" transform="translate(487,197)"/>
<path d="M0 0 C2 3 2 3 1.84155273 5.03466797 C0.79200751 7.4857382 -0.17315858 8.11687408 -2.46484375 9.4453125 C-3.18784668 9.86586914 -3.91084961 10.28642578 -4.65576172 10.71972656 C-8.58385071 12.86499824 -12.53561569 14.92101304 -16.5625 16.875 C-17.37396484 17.29007813 -18.18542969 17.70515625 -19.02148438 18.1328125 C-24.22538741 20.6528624 -27.35976219 21.46873307 -33 20 C-33.75 17.75 -33.75 17.75 -34 15 C-29.91360718 10.08647755 -24.34235944 7.94144466 -18.6875 5.25 C-17.66720703 4.74339844 -16.64691406 4.23679687 -15.59570312 3.71484375 C-5.72451745 -1.0197521 -5.72451745 -1.0197521 0 0 Z " fill="#9BB143" transform="translate(247,79)"/>
<path d="M0 0 C2 2 2 2 2.625 4.3125 C2 7 2 7 0.52954102 8.18920898 C-4.73883563 11.36098008 -10.12065023 14.14012726 -15.6875 16.75 C-16.51572266 17.14832031 -17.34394531 17.54664063 -18.19726562 17.95703125 C-19.00228516 18.33730469 -19.80730469 18.71757812 -20.63671875 19.109375 C-21.35561279 19.44936523 -22.07450684 19.78935547 -22.81518555 20.13964844 C-25.21695471 21.08543395 -27.441192 21.65999802 -30 22 C-31.875 20.875 -31.875 20.875 -33 19 C-33.1875 16.625 -33.1875 16.625 -32 14 C-26.6859108 9.8860036 -20.35458411 7.05355568 -14.3125 4.1875 C-13.48427734 3.78080078 -12.65605469 3.37410156 -11.80273438 2.95507812 C-10.99771484 2.57158203 -10.19269531 2.18808594 -9.36328125 1.79296875 C-8.64438721 1.4477417 -7.92549316 1.10251465 -7.18481445 0.74682617 C-4.62715268 -0.12744887 -2.68543338 -0.27063371 0 0 Z " fill="#9BB243" transform="translate(153,203)"/>
<path d="M0 0 C1.4540625 0.0309375 1.4540625 0.0309375 2.9375 0.0625 C4.87675795 3.60320678 6.81359121 7.14523433 8.75 10.6875 C9.29720703 11.68652344 9.84441406 12.68554688 10.40820312 13.71484375 C11.92611217 16.49307728 13.4346444 19.27609993 14.9375 22.0625 C15.28893066 22.70630615 15.64036133 23.3501123 16.00244141 24.01342773 C17.38743826 26.63361566 17.95675798 27.84584777 17.6875 30.875 C16.9375 33.0625 16.9375 33.0625 15.9375 34.0625 C13.93791636 34.10330783 11.93704746 34.10504356 9.9375 34.0625 C6.99045026 28.81357706 4.06297489 23.5542861 1.16015625 18.28076172 C0.15439567 16.45601318 -0.85922824 14.63560093 -1.875 12.81640625 C-2.32875 11.96949219 -2.7825 11.12257812 -3.25 10.25 C-3.63542969 9.54230469 -4.02085937 8.83460938 -4.41796875 8.10546875 C-5.2581409 5.44237764 -4.84048851 3.71125855 -4.0625 1.0625 C-3.0625 0.0625 -3.0625 0.0625 0 0 Z " fill="#DDE7EC" transform="translate(191.0625,122.9375)"/>
<path d="M0 0 C5.21704251 0.62327499 8.72315864 3.29088078 13.03125 6.171875 C13.86011719 6.71070313 14.68898438 7.24953125 15.54296875 7.8046875 C17.15252333 8.85384073 18.75692813 9.91094721 20.35546875 10.97680664 C21.70231418 11.87132842 23.05764609 12.75338243 24.42578125 13.61499023 C28.42504592 16.14972705 28.42504592 16.14972705 29.53125 18.984375 C29.53125 21.421875 29.53125 21.421875 27.53125 24.421875 C22.51765377 25.15062627 19.85803464 23.7915713 15.765625 20.9921875 C14.71117188 20.27933594 13.65671875 19.56648438 12.5703125 18.83203125 C11.47388257 18.07042156 10.37752921 17.30870163 9.28125 16.546875 C8.17010032 15.79174675 7.05812787 15.03782767 5.9453125 14.28515625 C-2.07142857 8.81919643 -2.07142857 8.81919643 -4.46875 6.421875 C-3.76403614 0.64322137 -3.76403614 0.64322137 0 0 Z " fill="#FAE2A1" transform="translate(41.46875,256.578125)"/>
<path d="M0 0 C2.6875 0.625 2.6875 0.625 3.85693359 2.09765625 C4.24187988 2.74605469 4.62682617 3.39445313 5.0234375 4.0625 C5.45599854 4.78872559 5.88855957 5.51495117 6.33422852 6.26318359 C8.6086417 10.23263571 10.83957271 14.21720239 13 18.25 C13.6815918 19.47976563 13.6815918 19.47976563 14.37695312 20.734375 C16.72165339 25.12055113 18.52951121 28.50997866 17.6875 33.625 C15.6875 35.625 15.6875 35.625 13.375 35.75 C6.95685146 33.06333317 3.52970887 22.85900538 0.375 16.9375 C-0.07939453 16.10927734 -0.53378906 15.28105469 -1.00195312 14.42773438 C-1.64487305 13.22020508 -1.64487305 13.22020508 -2.30078125 11.98828125 C-2.68790283 11.26938721 -3.07502441 10.55049316 -3.47387695 9.80981445 C-4.46288455 7.23321214 -4.60436266 5.36316627 -4.3125 2.625 C-2.3125 0.625 -2.3125 0.625 0 0 Z " fill="#DDE7EC" transform="translate(97.3125,246.375)"/>
<path d="M0 0 C2.6875 0.625 2.6875 0.625 3.85473633 2.09985352 C4.23911865 2.74881592 4.62350098 3.39777832 5.01953125 4.06640625 C5.45193115 4.79279297 5.88433105 5.51917969 6.32983398 6.26757812 C6.77786377 7.04552734 7.22589355 7.82347656 7.6875 8.625 C8.13488525 9.39263672 8.58227051 10.16027344 9.04321289 10.95117188 C10.41569602 13.34652704 11.74272793 15.76275747 13.0625 18.1875 C13.52527344 18.99896484 13.98804688 19.81042969 14.46484375 20.64648438 C17.27762215 25.84802532 18.25152283 28.85669798 16.6875 34.625 C14.4375 35.375 14.4375 35.375 11.6875 35.625 C8.48895704 32.96703385 6.72560488 30.17006639 4.92578125 26.45703125 C4.44689453 25.48185547 3.96800781 24.50667969 3.47460938 23.50195312 C2.98798828 22.49068359 2.50136719 21.47941406 2 20.4375 C1.01848782 18.42241613 0.03549584 16.40805213 -0.94921875 14.39453125 C-1.37936279 13.50354736 -1.80950684 12.61256348 -2.25268555 11.69458008 C-3.14591104 9.68922867 -3.14591104 9.68922867 -4.3125 8.625 C-4.5 5.6875 -4.5 5.6875 -4.3125 2.625 C-2.3125 0.625 -2.3125 0.625 0 0 Z " fill="#DEE8ED" transform="translate(431.3125,240.375)"/>
<path d="M0 0 C2.5 0.25 2.5 0.25 4.5 2.25 C4.72518554 9.4144324 2.67189596 16.75724393 1.0625 23.6875 C0.84529297 24.66654297 0.62808594 25.64558594 0.40429688 26.65429688 C0.18966797 27.59208984 -0.02496094 28.52988281 -0.24609375 29.49609375 C-0.53504517 30.75957642 -0.53504517 30.75957642 -0.82983398 32.04858398 C-1.5 34.25 -1.5 34.25 -3.5 37.25 C-6.5 37.625 -6.5 37.625 -9.5 37.25 C-11.67443919 33.98834121 -11.63488984 33.18546044 -10.97607422 29.50634766 C-9.91236141 24.46489442 -8.76003681 19.44877514 -7.5625 14.4375 C-7.29759766 13.29345703 -7.03269531 12.14941406 -6.75976562 10.97070312 C-6.50001953 9.88080078 -6.24027344 8.79089844 -5.97265625 7.66796875 C-5.73812744 6.67563232 -5.50359863 5.6832959 -5.26196289 4.66088867 C-4.23230649 1.40300435 -3.4592167 0.34592167 0 0 Z " fill="#FA79A8" transform="translate(418.5,170.75)"/>
<path d="M0 0 C4.51696435 0.29757895 7.52556281 1.62345115 11.29296875 4.0546875 C12.25267578 4.66957031 13.21238281 5.28445312 14.20117188 5.91796875 C15.18666016 6.56378906 16.17214844 7.20960938 17.1875 7.875 C18.18458984 8.51308594 19.18167969 9.15117187 20.20898438 9.80859375 C29.04406219 15.51594678 29.04406219 15.51594678 31 18 C30.6875 21.1875 30.6875 21.1875 30 24 C27.625 24.88671875 27.625 24.88671875 24 25 C20.41689266 23.31079884 17.24507303 21.0721207 14 18.8125 C13.1234375 18.22146484 12.246875 17.63042969 11.34375 17.02148438 C9.64636801 15.87498465 7.95530088 14.7190659 6.27148438 13.55273438 C4.34418486 12.23527684 2.39051324 10.99766104 0.40625 9.76953125 C-2 8 -2 8 -2.5 4.875 C-2 2 -2 2 0 0 Z " fill="#FAE2A2" transform="translate(133,132)"/>
<path d="M0 0 C1 1 1 1 1.5625 3.75 C1 7 1 7 -0.46655273 8.24194336 C-5.73905784 11.3523091 -11.09973815 14.1770378 -16.625 16.8125 C-17.85476563 17.42254883 -17.85476563 17.42254883 -19.109375 18.04492188 C-23.50608275 20.14784881 -27.01070932 21.75990735 -32 21 C-34 19 -34 19 -34.125 16.6875 C-31.40985092 10.20131052 -21.43215821 7.07666832 -15.375 4.1875 C-14.55515625 3.78080078 -13.7353125 3.37410156 -12.890625 2.95507812 C-8.46092739 0.83637228 -5.03077538 -0.65860309 0 0 Z " fill="#9BB243" transform="translate(411,80)"/>
<path d="M0 0 C4.22217407 1.2956335 7.56072003 3.63882869 11.21484375 6.078125 C12.29668945 6.78291992 12.29668945 6.78291992 13.40039062 7.50195312 C15.58635032 8.93900107 17.74507783 10.41092766 19.90234375 11.890625 C20.66981934 12.39416504 21.43729492 12.89770508 22.22802734 13.41650391 C23.3255835 14.17133057 23.3255835 14.17133057 24.4453125 14.94140625 C25.10942139 15.38782471 25.77353027 15.83424316 26.45776367 16.29418945 C27.90234375 17.890625 27.90234375 17.890625 28.2434082 20.44995117 C27.90234375 22.890625 27.90234375 22.890625 25.90234375 24.890625 C19.61138248 25.81288156 14.94978125 21.63768552 9.89892578 18.38427734 C8.15681859 17.26849105 6.3965156 16.18670185 4.6328125 15.10546875 C3.53066406 14.40292969 2.42851562 13.70039063 1.29296875 12.9765625 C0.28266602 12.3376709 -0.72763672 11.6987793 -1.76855469 11.04052734 C-4.09765625 8.890625 -4.09765625 8.890625 -5.00488281 5.75634766 C-5.09765625 2.890625 -5.09765625 2.890625 -3.97265625 0.953125 C-2.09765625 -0.109375 -2.09765625 -0.109375 0 0 Z " fill="#FAE2A2" transform="translate(376.09765625,250.109375)"/>
<path d="M0 0 C5.56818182 0.56818182 5.56818182 0.56818182 7 2 C6.82879101 9.20084851 3.30083625 15.02764533 0.0625 21.3125 C-0.48857422 22.40884766 -1.03964844 23.50519531 -1.60742188 24.63476562 C-5.70453477 32.70453477 -5.70453477 32.70453477 -8 35 C-10.5 35.25 -10.5 35.25 -13 35 C-13.66 34.34 -14.32 33.68 -15 33 C-14.99021206 25.8450194 -11.267854 19.90834383 -8.0625 13.6875 C-7.51142578 12.59115234 -6.96035156 11.49480469 -6.39257812 10.36523438 C-2.29546523 2.29546523 -2.29546523 2.29546523 0 0 Z " fill="#7DC8F8" transform="translate(363,201)"/>
<path d="M0 0 C3 -0.375 3 -0.375 6 0 C8 3 8 3 7.93359375 4.9609375 C7.31301102 7.98078104 6.67718617 10.99203352 6 14 C5.81453613 14.83708496 5.62907227 15.67416992 5.43798828 16.53662109 C4.80366234 19.38137114 4.1545872 22.22234693 3.5 25.0625 C3.28657959 26.00335449 3.07315918 26.94420898 2.85327148 27.91357422 C2.64387939 28.79932129 2.4344873 29.68506836 2.21875 30.59765625 C2.03248047 31.39695557 1.84621094 32.19625488 1.65429688 33.01977539 C1 35 1 35 -1 37 C-3.5 37.25 -3.5 37.25 -6 37 C-8 35 -8 35 -8.06225586 33.01928711 C-7.28939135 26.42907736 -6.0630881 20.0242161 -4.5625 13.5625 C-4.34529297 12.58345703 -4.12808594 11.60441406 -3.90429688 10.59570312 C-3.68966797 9.65791016 -3.47503906 8.72011719 -3.25390625 7.75390625 C-3.06127197 6.91158447 -2.8686377 6.0692627 -2.67016602 5.20141602 C-2 3 -2 3 0 0 Z " fill="#FA79A9" transform="translate(339,54)"/>
<path d="M0 0 C3 -0.3125 3 -0.3125 6 0 C6.66 0.66 7.32 1.32 8 2 C7.55372977 8.67866486 6.02358268 15.21495595 4.625 21.75 C4.41617188 22.77738281 4.20734375 23.80476563 3.9921875 24.86328125 C3.67507812 26.34634766 3.67507812 26.34634766 3.3515625 27.859375 C3.07046631 29.19693848 3.07046631 29.19693848 2.78369141 30.56152344 C1.93541074 33.20097119 0.77709163 34.89250051 -1 37 C-6.875 36.125 -6.875 36.125 -8 35 C-7.86335043 27.73118553 -6.19934161 20.61094042 -4.5625 13.5625 C-4.34529297 12.58345703 -4.12808594 11.60441406 -3.90429688 10.59570312 C-3.68966797 9.65791016 -3.47503906 8.72011719 -3.25390625 7.75390625 C-3.06127197 6.91158447 -2.8686377 6.0692627 -2.67016602 5.20141602 C-2 3 -2 3 0 0 Z " fill="#FA79A8" transform="translate(175,53)"/>
<path d="M0 0 C2.5 -0.3125 2.5 -0.3125 5 0 C7 2 7 2 7.15234375 4.3359375 C6.63412301 11.66640543 5.3223323 18.55995545 3.5625 25.6875 C3.3452124 26.5729248 3.1279248 27.45834961 2.90405273 28.37060547 C1.25763311 34.74236689 1.25763311 34.74236689 -1 37 C-3.5 37.25 -3.5 37.25 -6 37 C-8 35 -8 35 -8.3046875 32.171875 C-8.13437544 26.40516838 -6.50342883 20.82141699 -5.125 15.25 C-4.85558594 14.11433594 -4.58617188 12.97867188 -4.30859375 11.80859375 C-2.26215278 3.39322917 -2.26215278 3.39322917 0 0 Z " fill="#FA79A9" transform="translate(82,177)"/>
<path d="M0 0 C1.4540625 0.0309375 1.4540625 0.0309375 2.9375 0.0625 C4.95038869 3.62673547 6.94331568 7.20134835 8.91894531 10.78637695 C9.59267578 12.00254766 10.27164138 13.21583435 10.95605469 14.42602539 C11.94300731 16.17333437 12.90921966 17.93230634 13.875 19.69140625 C14.46152344 20.74400635 15.04804688 21.79660645 15.65234375 22.88110352 C17.11829093 26.51004685 17.24880446 29.18286822 16.9375 33.0625 C15.9375 34.0625 15.9375 34.0625 13.1875 34.625 C9.9375 34.0625 9.9375 34.0625 8.71533203 32.61572266 C8.33747559 31.9716748 7.95961914 31.32762695 7.5703125 30.6640625 C7.14298828 29.93743408 6.71566406 29.21080566 6.27539062 28.4621582 C3.95737157 24.30452878 1.72040026 20.11802675 -0.4375 15.875 C-0.90027344 14.99908203 -1.36304688 14.12316406 -1.83984375 13.22070312 C-2.27167969 12.37056641 -2.70351563 11.52042969 -3.1484375 10.64453125 C-3.7369751 9.50334839 -3.7369751 9.50334839 -4.33740234 8.33911133 C-5.23022733 5.53588137 -4.89869252 3.85270145 -4.0625 1.0625 C-3.0625 0.0625 -3.0625 0.0625 0 0 Z " fill="#DEE8ED" transform="translate(355.0625,123.9375)"/>
</svg>
